<svg width="934" height="306" viewBox="0 0 934 306" fill="none" xmlns="http://www.w3.org/2000/svg">
<g filter="url(#filter0_d_7_714)">
<path d="M14.4844 83.3516C14.4844 81.1641 14.875 79.1328 15.6562 77.2578C16.4375 75.3828 17.5312 73.7422 18.9375 72.3359C20.2656 71.0078 21.8672 69.9531 23.7422 69.1719C25.6172 68.3906 27.6484 68 29.8359 68L139.758 68C142.57 68 145.617 68.3125 148.898 68.9375C152.102 69.6406 155.305 70.6953 158.508 72.1016C161.633 73.5078 164.641 75.3047 167.531 77.4922C170.422 79.7578 173 82.4531 175.266 85.5781C177.453 88.7812 179.211 92.4531 180.539 96.5938C181.867 100.812 182.531 105.539 182.531 110.773L182.531 193.273C182.531 196.086 182.219 199.094 181.594 202.297C180.891 205.578 179.836 208.781 178.43 211.906C177.023 215.109 175.188 218.156 172.922 221.047C170.656 223.938 167.961 226.477 164.836 228.664C161.633 230.93 157.961 232.727 153.82 234.055C149.68 235.383 144.992 236.047 139.758 236.047L15.8906 236.047V205.578L139.758 205.578C143.742 205.578 146.789 204.523 148.898 202.414C151.008 200.305 152.062 197.18 152.062 193.039L152.062 110.773C152.062 106.867 151.008 103.82 148.898 101.633C146.711 99.5234 143.664 98.4688 139.758 98.4688L44.9531 98.4688V136.672L126.047 136.672V167.375L29.8359 167.375C27.6484 167.375 25.6172 166.945 23.7422 166.086C21.8672 165.305 20.2656 164.211 18.9375 162.805C17.5312 161.398 16.4375 159.758 15.6562 157.883C14.875 156.086 14.4844 154.133 14.4844 152.023V83.3516Z" fill="#F8F0DE"/>
</g>
<g filter="url(#filter1_d_7_714)">
<path d="M323.516 222.648C323.516 224.836 323.125 226.867 322.344 228.742C321.562 230.617 320.469 232.258 319.062 233.664C317.734 234.992 316.133 236.047 314.258 236.828C312.383 237.609 310.352 238 308.164 238H198.242C195.43 238 192.383 237.688 189.102 237.062C185.898 236.359 182.695 235.305 179.492 233.898C176.367 232.492 173.359 230.695 170.469 228.508C167.578 226.242 165 223.547 162.734 220.422C160.547 217.219 158.789 213.547 157.461 209.406C156.133 205.188 155.469 200.461 155.469 195.227V112.727C155.469 109.914 155.781 106.906 156.406 103.703C157.109 100.422 158.164 97.2188 159.57 94.0938C160.977 90.8906 162.812 87.8438 165.078 84.9531C167.344 82.0625 170.039 79.5234 173.164 77.3359C176.367 75.0703 180.039 73.2734 184.18 71.9453C188.32 70.6172 193.008 69.9531 198.242 69.9531H322.109V100.422H198.242C194.258 100.422 191.211 101.477 189.102 103.586C186.992 105.695 185.938 108.82 185.938 112.961V195.227C185.938 199.133 186.992 202.18 189.102 204.367C191.289 206.477 194.336 207.531 198.242 207.531H293.047V169.328H211.953V138.625H308.164C310.352 138.625 312.383 139.055 314.258 139.914C316.133 140.695 317.734 141.789 319.062 143.195C320.469 144.602 321.562 146.242 322.344 148.117C323.125 149.914 323.516 151.867 323.516 153.977V222.648ZM524.956 238H494.488V196.75H387.378V238H356.909V153.977C356.909 141.711 359.019 130.422 363.238 120.109C367.456 109.797 373.316 100.93 380.816 93.5078C388.316 86.0859 397.183 80.3047 407.417 76.1641C417.652 72.0234 428.823 69.9531 440.933 69.9531H509.605C511.714 69.9531 513.706 70.3437 515.581 71.125C517.456 71.9063 519.097 73 520.503 74.4062C521.909 75.8125 523.003 77.4531 523.784 79.3281C524.566 81.2031 524.956 83.1953 524.956 85.3047V238ZM387.378 166.281H494.488V100.422H440.933C439.995 100.422 438.003 100.578 434.956 100.891C431.988 101.125 428.511 101.789 424.527 102.883C420.62 103.977 416.48 105.656 412.105 107.922C407.73 110.187 403.706 113.312 400.034 117.297C396.363 121.281 393.316 126.281 390.894 132.297C388.55 138.234 387.378 145.461 387.378 153.977V166.281ZM732.959 201.086C732.959 204.836 732.295 208.859 730.967 213.156C729.717 217.453 727.608 221.438 724.639 225.109C721.748 228.781 717.959 231.867 713.272 234.367C708.584 236.789 702.842 238 696.045 238H580.381C578.194 238 576.163 237.609 574.288 236.828C572.413 236.047 570.772 234.992 569.366 233.664C568.038 232.258 566.983 230.617 566.202 228.742C565.42 226.867 565.03 224.836 565.03 222.648V85.3047C565.03 83.1953 565.42 81.2031 566.202 79.3281C566.983 77.4531 568.038 75.8125 569.366 74.4062C570.772 73 572.413 71.9063 574.288 71.125C576.163 70.3437 578.194 69.9531 580.381 69.9531H682.334C686.084 69.9531 690.108 70.6172 694.405 71.9453C698.702 73.2734 702.686 75.4219 706.358 78.3906C710.108 81.2813 713.194 85.0703 715.616 89.7578C718.116 94.4453 719.366 100.188 719.366 106.984V112.727C719.366 118.117 718.467 123.938 716.67 130.188C714.873 136.359 711.983 142.219 707.998 147.766C711.436 149.875 714.639 152.414 717.608 155.383C720.655 158.352 723.311 161.789 725.577 165.695C727.842 169.602 729.639 174.016 730.967 178.938C732.295 183.859 732.959 189.289 732.959 195.227V201.086ZM702.491 195.227C702.491 191.242 701.866 187.688 700.616 184.562C699.366 181.359 697.608 178.625 695.342 176.359C693.077 174.094 690.342 172.375 687.139 171.203C683.936 169.953 680.342 169.328 676.358 169.328H607.686V138.625H662.647C666.631 138.625 670.225 138.039 673.428 136.867C676.631 135.617 679.366 133.859 681.631 131.594C683.897 129.328 685.616 126.633 686.788 123.508C688.038 120.305 688.663 116.711 688.663 112.727V106.984C688.663 102.609 686.553 100.422 682.334 100.422H595.498V207.531H696.045C696.592 207.531 697.256 207.492 698.038 207.414C698.819 207.336 699.522 207.102 700.147 206.711C700.772 206.32 701.319 205.656 701.788 204.719C702.256 203.781 702.491 202.492 702.491 200.852V195.227ZM925.845 188.547C925.845 194.562 925.064 199.992 923.502 204.836C922.017 209.602 920.025 213.82 917.525 217.492C915.025 221.164 912.095 224.289 908.736 226.867C905.377 229.445 901.9 231.555 898.306 233.195C894.713 234.836 891.041 236.047 887.291 236.828C883.619 237.609 880.142 238 876.861 238H759.322V207.531H876.861C882.72 207.531 887.252 205.812 890.455 202.375C893.736 198.938 895.377 194.328 895.377 188.547C895.377 185.734 894.947 183.156 894.088 180.812C893.228 178.469 891.978 176.438 890.338 174.719C888.775 173 886.822 171.672 884.478 170.734C882.213 169.797 879.673 169.328 876.861 169.328H806.783C801.861 169.328 796.548 168.469 790.845 166.75C785.142 164.953 779.83 162.102 774.908 158.195C770.064 154.289 766.002 149.172 762.72 142.844C759.517 136.516 757.916 128.781 757.916 119.641C757.916 110.5 759.517 102.805 762.72 96.5547C766.002 90.2266 770.064 85.1094 774.908 81.2031C779.83 77.2188 785.142 74.3672 790.845 72.6484C796.548 70.8516 801.861 69.9531 806.783 69.9531H910.494V100.422H806.783C801.002 100.422 796.47 102.18 793.189 105.695C789.986 109.211 788.384 113.859 788.384 119.641C788.384 125.5 789.986 130.148 793.189 133.586C796.47 136.945 801.002 138.625 806.783 138.625H876.861H877.095C880.377 138.703 883.853 139.172 887.525 140.031C891.197 140.812 894.83 142.062 898.423 143.781C902.095 145.5 905.572 147.688 908.853 150.344C912.134 152.922 915.025 156.047 917.525 159.719C920.103 163.391 922.134 167.609 923.619 172.375C925.103 177.141 925.845 182.531 925.845 188.547Z" fill="#F8F0DE"/>
</g>
<defs>
<filter id="filter0_d_7_714" x="10.4844" y="68" width="176.047" height="176.047" filterUnits="userSpaceOnUse" color-interpolation-filters="sRGB">
<feFlood flood-opacity="0" result="BackgroundImageFix"/>
<feColorMatrix in="SourceAlpha" type="matrix" values="0 0 0 0 0 0 0 0 0 0 0 0 0 0 0 0 0 0 127 0" result="hardAlpha"/>
<feOffset dy="4"/>
<feGaussianBlur stdDeviation="2"/>
<feComposite in2="hardAlpha" operator="out"/>
<feColorMatrix type="matrix" values="0 0 0 0 0 0 0 0 0 0 0 0 0 0 0 0 0 0 0.25 0"/>
<feBlend mode="normal" in2="BackgroundImageFix" result="effect1_dropShadow_7_714"/>
<feBlend mode="normal" in="SourceGraphic" in2="effect1_dropShadow_7_714" result="shape"/>
</filter>
<filter id="filter1_d_7_714" x="151.469" y="69.9531" width="778.377" height="176.047" filterUnits="userSpaceOnUse" color-interpolation-filters="sRGB">
<feFlood flood-opacity="0" result="BackgroundImageFix"/>
<feColorMatrix in="SourceAlpha" type="matrix" values="0 0 0 0 0 0 0 0 0 0 0 0 0 0 0 0 0 0 127 0" result="hardAlpha"/>
<feOffset dy="4"/>
<feGaussianBlur stdDeviation="2"/>
<feComposite in2="hardAlpha" operator="out"/>
<feColorMatrix type="matrix" values="0 0 0 0 0 0 0 0 0 0 0 0 0 0 0 0 0 0 0.25 0"/>
<feBlend mode="normal" in2="BackgroundImageFix" result="effect1_dropShadow_7_714"/>
<feBlend mode="normal" in="SourceGraphic" in2="effect1_dropShadow_7_714" result="shape"/>
</filter>
</defs>
</svg>
